<svg width="318" height="106" viewBox="0 0 318 106" fill="none" xmlns="http://www.w3.org/2000/svg">
<path d="M1 105H1.69912L1.79899 104.987L1.89886 104.971L1.99874 104.988L2.09861 104.985L2.19848 104.993L2.29836 104.983L2.39823 104.986L2.4981 104.988L2.59798 104.992L2.69785 104.993L2.79772 104.997H2.8976L2.99747 104.992L3.09735 104.986L3.19722 104.988L3.29709 104.993L3.39697 104.975L3.49684 104.997L3.59671 104.985L3.69659 104.983L3.79646 104.992L3.89633 104.986L4.09608 104.99L4.19595 104.988L4.29583 104.985L4.3957 104.986L4.49558 104.985L4.59545 104.984L4.69532 104.981L4.7952 104.988L4.89507 104.97L4.99494 104.993L5.09482 104.99L5.19469 104.995L5.29456 104.992L5.39444 104.984L5.49431 104.983L5.59418 104.986L5.69406 104.992L5.79393 104.99L5.89381 104.99L5.99368 104.973L6.09355 104.98L6.19343 104.976L6.2933 104.976L6.49305 104.986L6.59292 104.981L6.69279 104.981L6.79267 104.998L6.89254 104.989L6.99241 104.992L7.09229 104.991L7.19216 104.986L7.29204 104.993L7.39191 104.996L7.49178 104.996L7.59166 104.998L7.69153 104.98L7.7914 104.993L7.89128 104.992L7.99115 104.993L8.09102 104.995L8.1909 104.996L8.29077 104.995L8.39064 104.975L8.49052 104.98L8.59039 104.978L8.69027 104.971L8.79014 104.982L8.89001 104.977L8.98989 104.985L9.08976 104.979L9.18963 104.982L9.28951 104.991L9.38938 104.971L9.48925 104.953L9.58913 104.951L9.689 104.941L9.78887 104.984L9.88875 104.963L9.98862 104.981L10.0885 104.983L10.1884 104.962L10.2882 104.978L10.3881 104.99L10.488 104.986L10.5879 104.983L10.6877 104.987L10.7876 104.978L10.8875 104.979L10.9874 104.944L11.0872 104.971L11.1871 104.982L11.287 104.965L11.3869 104.983L11.4867 104.987L11.5866 104.976L11.6865 104.991L11.7863 104.988L11.8862 104.986L11.9861 104.988L12.086 104.983L12.1858 104.984L12.2857 104.992L12.3856 104.984L12.4855 104.988L12.5853 104.979L12.6852 104.983L12.7851 104.991L12.885 104.994L12.9848 104.996L13.1846 104.991L13.2844 104.992L13.3843 104.983L13.4842 104.986L13.5841 104.987L13.6839 104.97L13.7838 104.977L13.8837 104.939L13.9836 104.98L14.0834 104.985H14.1833L14.2832 104.978L14.3831 104.979L14.4829 104.986L14.5828 104.964L14.6827 104.972L14.7826 104.986L14.8824 104.987L14.9823 104.959L15.0822 104.957L15.182 104.996L15.2819 104.99L15.3818 104.976L15.4817 104.991L15.5815 104.988L15.6814 104.994L15.7813 104.99L15.8812 104.984L15.981 104.992L16.0809 104.978L16.1808 104.97L16.2807 104.978L16.3805 104.98L16.4804 104.986L16.5803 104.989L16.6802 104.993L16.78 104.978H16.8799L16.9798 104.97L17.0796 104.978L17.1795 104.985L17.2794 104.957L17.3793 104.971L17.4791 104.978L17.579 104.98L17.6789 104.984L17.7788 104.982L17.8786 104.978L17.9785 104.98L18.0784 104.981L18.1783 104.983L18.2781 104.982L18.378 104.973L18.4779 104.958L18.5777 104.959L18.6776 104.966L18.7775 104.964L18.8774 104.968L18.9772 104.972L19.0771 104.958L19.177 104.968H19.2769L19.3767 104.97L19.4766 104.962L19.5765 104.965L19.6764 104.977L19.7762 104.974L19.8761 104.958L19.976 104.954L20.0759 104.965L20.1757 104.983L20.2756 104.949L20.3755 104.971L20.4753 104.975L20.5752 104.855L20.6751 104.958L20.775 104.965L20.8748 104.976L20.9747 104.972L21.0746 104.961L21.1745 104.962L21.2743 104.964L21.3742 104.755L21.4741 104.977L21.574 104.941L21.6738 104.959L21.7737 104.946L21.8736 104.971L21.9735 104.957L22.0733 104.728L22.1732 104.966L22.2731 104.954L22.3729 104.914L22.4728 104.952L22.5727 104.966L22.6726 104.963L22.7724 104.947L22.8723 104.934L22.9722 104.953L23.0721 104.96L23.1719 104.936L23.2718 104.926L23.3717 104.962L23.4716 104.965L23.5714 104.958L23.6713 104.953L23.7712 104.929L23.871 104.936L23.9709 104.941L24.0708 104.962L24.1707 104.956L24.2705 104.97L24.3704 104.94L24.4703 104.924L24.5702 104.95L24.67 104.909L24.7699 104.902L24.8698 104.958L24.9697 104.953L25.0695 104.965L25.1694 104.951L25.2693 104.919L25.3692 104.752L25.469 104.662L25.5689 104.947L25.6688 104.917L25.7686 104.953L25.8685 104.952L25.9684 104.944L26.0683 104.956L26.1681 104.941L26.268 104.954L26.3679 104.969L26.4678 104.966L26.5676 104.956L26.6675 104.964L26.7674 104.97L26.8673 104.97L26.9671 104.97L27.067 104.975L27.1669 104.977L27.2668 104.973L27.3666 104.978L27.4665 104.956L27.5664 104.608L27.6662 104.959L27.7661 104.964H27.866L27.9659 104.953L28.0657 104.961L28.1656 104.966L28.2655 104.959L28.3654 104.965L28.4652 104.945L28.5651 104.556L28.665 104.958L28.7649 104.949L28.8647 104.934L28.9646 104.936L29.0645 104.923L29.1643 104.949L29.2642 104.955L29.3641 104.94L29.464 104.949L29.5638 104.867L29.6637 104.906L29.7636 104.839L29.8635 104.952L29.9633 104.96L30.0632 104.885L30.1631 104.88L30.263 104.881L30.3628 104.923L30.4627 104.884L30.5626 104.263L30.6625 104.808L30.7623 104.931L30.8622 104.944L30.9621 104.926L31.0619 104.871L31.1618 104.809L31.2617 104.245L31.3616 104.68L31.4614 104.881L31.5613 104.89L31.6612 104.857L31.7611 104.889L31.8609 104.929L31.9608 104.927L32.0607 104.906L32.1606 104.807L32.2604 104.89L32.3603 104.852L32.4602 104.773L32.56 104.664L32.6599 104.628L32.7598 104.647L32.8597 104.117L32.9595 104.566L33.0594 104.831L33.1593 104.016L33.2592 102.342L33.359 101.014L33.4589 103.823L33.5588 103.814L33.6587 104.353L33.7585 103.992L33.8584 104.433L33.9583 104.287L34.0582 104.689L34.158 104.643L34.2579 104.627L34.3578 104.56L34.4576 104.586L34.5575 104.802L34.6574 104.489L34.7573 104.803L34.8571 104.542L34.957 104.715L35.0569 104.515L35.1568 104.672L35.2566 104.698L35.3565 104.637L35.4564 104.246L35.5563 104.591L35.6561 104.833L35.756 104.455L35.8559 104.709L35.9557 104.623L36.0556 104.478L36.1555 104.758L36.2554 104.89L36.3552 104.833L36.4551 104.669L36.555 103.922L36.6549 104.66L36.7547 104.43L36.8546 104.598L36.9545 104.908L37.0544 104.684L37.1542 104.691L37.2541 104.383L37.354 104.768L37.4539 104.834L37.5537 104.911L37.6536 104.922L37.7535 104.89L37.8533 104.872L37.9532 104.87L38.0531 104.887L38.153 104.896L38.2528 104.942L38.3527 104.924L38.4526 104.777L38.5525 104.824L38.6523 104.718L38.7522 104.852L38.8521 104.814L38.952 104.898L39.0518 104.97L39.1517 104.951L39.2516 104.937L39.3515 104.923L39.4513 104.931L39.5512 104.955L39.6511 104.951L39.7509 104.876L39.8508 104.924L39.9507 104.758L40.0506 104.931L40.1504 104.936L40.2503 104.965L40.3502 104.969L40.4501 104.981L40.5499 104.961L40.6498 104.943L40.7497 104.926L40.8496 104.856L40.9494 104.9L41.0493 104.951L41.1492 104.899L41.2491 104.878L41.3489 104.894L41.4488 104.927L41.5487 104.934L41.6485 104.824L41.7484 104.88L41.8483 104.966L41.9482 104.659L42.048 104.948L42.1479 104.904L42.2478 104.926L42.3477 104.904L42.4475 104.967L42.5474 104.928L42.6473 104.979L42.7472 104.936L42.847 104.887L42.9469 104.957L43.0468 104.986L43.1466 104.942L43.2465 104.955L43.3464 104.965L43.4463 104.952L43.5461 104.94L43.646 104.802L43.7459 104.886L43.8458 104.97L43.9456 104.913L44.0455 104.746L44.1454 96.2795L44.2453 104.662L44.3451 104.634L44.445 104.915L44.5449 104.767L44.6448 104.721L44.7446 104.524L44.8445 103.413L44.9444 102.317L45.0442 99.2922L45.1441 100.735L45.244 104.141L45.3439 103.591L45.4437 103.704L45.5436 103.778L45.6435 104.89L45.7434 104.957L45.8432 104.982L45.9431 104.898L46.043 104.978L46.1429 104.952L46.2427 104.588L46.3426 104.858L46.4425 104.919L46.5424 104.826L46.6422 104.971L46.7421 104.925L46.842 104.941L46.9418 104.796L47.0417 104.964L47.1416 104.969L47.2415 104.974L47.3413 104.965L47.4412 104.964L47.5411 104.971L47.641 104.941L47.7408 104.931L47.8407 104.825L47.9406 104.941L48.0405 104.959L48.1403 104.937L48.2402 104.878L48.3401 104.923L48.4399 104.884L48.5398 104.955L48.6397 104.912L48.7396 104.97L48.8394 104.91L48.9393 104.777L49.0392 104.954L49.1391 104.956L49.2389 104.795L49.3388 102.342L49.4387 104.4L49.5386 104.581L49.6384 104.955L49.7383 104.941L49.8382 104.947L49.9381 104.937L50.0379 104.736L50.1378 104.091L50.2377 104.016L50.3375 103.809L50.4374 104.835L50.5373 104.914L50.6372 104.938L50.737 104.887L50.8369 104.493L50.9368 104.853L51.0367 104.919L51.1365 104.93L51.2364 104.941L51.3363 104.96L51.4362 104.956L51.536 104.67L51.6359 104.928L51.7358 104.776L51.8357 104.907L51.9355 104.93L52.0354 104.955L52.1353 104.962L52.2351 104.962L52.335 104.975L52.4349 104.958L52.5348 104.894L52.6346 104.932L52.7345 104.867L52.8344 104.897L52.9343 104.825L53.0341 104.929L53.134 104.906L53.2339 104.936L53.3338 104.869L53.4336 104.92L53.5335 104.852L53.6334 104.885L53.7332 104.909L53.8331 104.891L53.933 104.916L54.0329 104.915L54.1327 104.703L54.2326 104.593L54.3325 104.688L54.4324 104.903L54.5322 104.963L54.6321 104.915L54.732 104.875L54.8319 104.929L54.9317 104.824L55.0316 104.958L55.1315 104.957L55.2313 104.868L55.3312 104.924L55.4311 104.926L55.531 104.8L55.6308 104.895L55.7307 104.817L55.8306 104.937L55.9305 104.797L56.0303 104.961L56.1302 104.878L56.2301 104.909L56.33 104.929L56.4298 104.873L56.5297 104.939L56.6296 104.943L56.7295 104.853L56.8293 104.73L56.9292 104.937L57.0291 104.934L57.1289 104.9L57.2288 104.794L57.3287 104.899L57.4286 104.896L57.5284 104.87L57.6283 104.934L57.7282 104.907L57.8281 104.626L57.9279 104.906L58.0278 104.887L58.1277 104.608L58.2276 104.815L58.3274 104.873L58.4273 104.913L58.5272 104.956L58.6271 104.945L58.7269 104.91L58.8268 104.918L58.9267 104.532L59.0265 104.843L59.1264 104.801L59.2263 104.956L59.3262 104.776L59.426 104.954L59.5259 104.959L59.6258 104.939L59.7257 104.917L59.8255 104.588L59.9254 104.94L60.0253 104.936L60.1252 104.799L60.225 104.609L60.3249 104.581L60.4248 104.424L60.5247 104.834L60.6245 104.907L60.7244 104.909L60.8243 104.843L60.9241 104.816L61.024 104.731L61.1239 104.789L61.2238 104.601L61.3236 104.899L61.4235 104.894L61.5234 103.796L61.6233 104.796L61.7231 104.854L61.823 104.679L61.9229 104.679L62.0228 104.76L62.1226 104.785L62.2225 104.659L62.3224 104.611L62.4222 104.392L62.5221 104.581L62.622 104.643L62.7219 104.613L62.8217 104.726L62.9216 104.733L63.0215 104.877L63.1214 103.727L63.2212 104.905L63.3211 104.703L63.421 104.837L63.5209 104.88L63.6207 104.722L63.7206 104.541L63.8205 104.604L63.9203 104.362L64.0202 103.056L64.1201 104.215L64.22 104.767L64.3198 104.33L64.4197 104.595L64.5196 103.941L64.6195 103.573L64.7193 104.545L64.8192 104.686L64.9191 104.525L65.019 103.937L65.1188 103.739L65.2187 104.748L65.3186 104.05L65.4185 104.551L65.5183 103.728L65.6182 103.173L65.7181 104.15L65.8179 103.172L65.9178 102.819L66.0177 103.49L66.1176 103.522L66.2174 103.534L66.3173 103.54L66.4172 103.024L66.5171 102.62L66.6169 103.003L66.7168 102.762L66.8167 102.413L66.9166 102.271L67.0164 102.658L67.1163 102.219L67.2162 100.188L67.3161 99.5908L67.4159 101.164L67.5158 101.618L67.6157 102.042L67.7156 101.854L67.8154 101.931L67.9153 98.7362L68.0152 101.977L68.115 101.556L68.2149 99.2196L68.3148 101.477L68.4147 100.633L68.5145 102.022L68.6144 100.862L68.7143 99.8605L68.8142 101.555L68.914 101.613L69.0139 102.127L69.1138 99.2366L69.2136 101.266L69.3135 101.43L69.4134 101.494L69.5133 101.596L69.6131 101.52L69.713 102.07L69.8129 100.698L69.9128 100.077L70.0126 103.072L70.1125 103.79L70.2124 100.224L70.3123 100.56L70.4121 101.331L70.512 99.5391L70.6119 102.208L70.7118 102.892L70.8116 100.495L70.9115 100.476L71.0114 99.3944L71.1113 101.881L71.2111 102.067L71.311 98.9322L71.4109 101.299L71.5107 100.1L71.6106 102.823L71.7105 101.391L71.8104 99.9952L71.9102 101.226L72.0101 103.563L72.11 103.07L72.2099 102.275L72.3097 97.6284L72.4096 102.925L72.5095 103.651L72.6094 103.194L72.7092 100.487L72.8091 97.4606L72.909 102.62L73.0089 99.7814L73.1087 100.37L73.2086 102.191L73.3085 101.235L73.4083 101.207L73.5082 99.8223L73.6081 100.809L73.708 103.095L73.8078 103.255L73.9077 102.987L74.0076 100.991L74.1075 101.126L74.2073 99.3952L74.3072 101.033L74.4071 99.2598L74.507 101.764L74.6068 101.865L74.7067 99.5252L74.8066 98.2145L74.9064 99.5079L75.0063 99.3358L75.1062 99.8486L75.2061 99.0665L75.3059 97.6018L75.4058 96.3748L75.5057 94.0423L75.6056 92.8231L75.7054 101.908L75.8053 98.8454L75.9052 98.5841L76.0051 95.6498L76.1049 94.7924L76.2048 99.1247L76.3047 98.2608L76.4045 98.3098L76.5044 101.591L76.6043 102.81L76.7042 101.392L76.804 100.14L76.9039 100.804L77.0038 99.7868L77.1037 99.6583L77.2035 99.1201L77.3034 99.4253L77.4033 99.3991L77.5032 99.1903L77.603 100.543L77.7029 100.115L77.8028 101.157L77.9027 98.8681L78.0025 99.0553L78.1024 97.8487L78.2023 98.9383L78.3021 98.4942L78.402 102.165L78.5019 100.684L78.6018 102.094L78.7016 103.254L78.8015 99.252L78.9014 100.094L79.0013 101.499L79.1011 101.691L79.201 93.3061L79.3009 93.8841L79.4008 102.241L79.5006 102.195L79.6005 102.778L79.7004 101.762L79.8002 94.9456L79.9001 95.683L80 98.3017L80.0999 101.797L80.1997 100.417L80.2996 102.304L80.3995 100.697L80.4994 99.778L80.5992 100.038L80.6991 104.186L80.799 103.871L80.8989 102.663L80.9987 100.848L81.0986 98.7967L81.1985 103.546L81.2984 102.533L81.3982 102.132L81.4981 103.72L81.598 102.429L81.6978 100.007L81.7977 97.8684L81.8976 99.0313L81.9975 101.043L82.0973 95.735L82.1972 95.3889L82.2971 101.023L82.397 97.8132L82.4968 95.0104L82.5967 89.0881L82.6966 91.8442L82.7965 92.9361L82.8963 97.2746L82.9962 102.97L83.0961 103.234L83.196 101.929L83.2958 94.9614L83.3957 94.3958L83.4956 94.8846L83.5954 99.0321L83.6953 98.5895L83.7952 99.3327L83.8951 98.1204L83.9949 101.791L84.0948 96.1919L84.1947 85.3218L84.2946 88.5517L84.3944 93.1916L84.4943 94.5767L84.5942 93.7973L84.6941 96.2405L84.7939 92.5356L84.8938 90.6523L84.9937 89.8088L85.0936 97.2491L85.1934 99.0136L85.2933 100.388L85.3932 99.6313L85.493 98.2253L85.5929 96.9327L85.6928 97.0616L85.7927 98.3171L85.8925 97.5308L85.9924 100.686L86.0923 94.2661L86.1922 99.9809L86.292 101.289L86.3919 97.608L86.4918 100.957L86.5917 101.75L86.6915 99.8189L86.7914 100.951L86.8913 99.2231L86.9911 91.4525L87.091 101.688L87.1909 100.668L87.2908 98.6524L87.3906 101.558L87.4905 102.014L87.6903 93.5975L87.7901 95.4843L87.89 96.3227L87.9899 88.0744L88.0898 87.3649L88.1896 97.3641L88.2895 96.2857L88.3894 97.4837L88.4893 94.1102L88.5891 91.4548L88.689 78.255L88.7889 81.2426L88.8887 79.2455L88.9886 87.2453L89.0885 90.6793L89.1884 91.2557L89.2882 93.9879L89.3881 84.8137L89.488 79.4033L89.5879 93.3791L89.6877 98.6355L89.7876 101.351L89.8875 102.107L89.9874 101.659L90.0872 99.7274L90.1871 100.246L90.287 100.295L90.3868 95.7802L90.4867 98.7948L90.5866 96.9184L90.6865 97.0168L90.7863 92.4596L90.8862 98.6883L90.9861 100.624L91.086 100.763L91.1858 101.654L91.2857 101.54L91.3856 99.5596L91.4855 94.4988L91.5853 86.4269L91.6852 79.5511L91.7851 77.4907L91.8849 85.8755L91.9848 99.0009L92.1846 94.5354L92.2844 95.9122L92.3843 93.0469L92.4842 95.6884L92.5841 100.275L92.6839 98.7485L92.7838 89.7313L92.8837 92.8362L92.9836 92.2586L93.0834 96.675L93.1833 96.1209L93.2832 93.2398L93.383 94.819L93.4829 94.7851L93.5828 94.5937L93.6827 96.7159L93.7826 95.7458L93.8824 94.7322L93.9823 94.1114L94.0822 93.6345L94.182 93.888L94.2819 94.7685L94.3818 92.5487L94.4817 100.671L94.5815 101.697L94.6814 100.806L94.7813 100.632L94.8812 102.22L94.981 101.605L95.0809 98.9353L95.1808 97.8865L95.2807 100.141L95.3805 100.288L95.4804 97.3089L95.5803 99.2154L95.6801 100.211L95.78 99.4554L95.8799 98.255L95.9798 98.1632L96.0796 99.0788L96.1795 99.2474L96.2794 98.9194L96.3793 99.531L96.4791 102.155L96.579 100.751L96.6789 99.4527L96.7788 98.6551L96.8786 100.996L96.9785 103.487L97.0784 103.418L97.1783 102.728L97.2781 99.1826L97.378 94.2989L97.4779 91.1346L97.5778 91.37L97.6776 94.0273L97.7775 95.2655L97.8774 98.5598L97.9772 100.022L98.0771 102.833L98.177 102.697L98.2769 100.576L98.3767 100.56L98.4766 93.9559L98.5765 93.2838L98.6764 94.924L98.7762 86.1996L98.8761 86.151L98.976 85.5938L99.0758 93.1861L99.1757 95.4572L99.2756 99.4839L99.3755 97.6867L99.4753 96.102L99.5752 99.3778L99.6751 96.4334L99.775 96.0352L99.8748 99.2409L99.9747 94.6875L100.075 98.5054L100.174 94.745L100.274 99.2717L100.374 100.651L100.474 87.7322L100.674 95.4457L100.774 98.6563L100.874 101.08L100.973 102.183L101.073 100.889L101.173 103.643L101.273 102.908L101.373 102.283L101.473 101.926L101.573 102.511L101.673 102.637L101.772 103.387L101.872 102.763L101.972 99.1085L102.072 97.6006L102.172 100.16L102.272 103.027L102.372 103.539L102.472 101.332L102.571 103.328L102.671 102.843L102.771 102.364L102.871 103.302L102.971 102.7L103.071 103.395L103.171 102.058L103.271 103.911L103.37 103.518L103.47 103.433L103.57 103.821L103.67 103.195L103.77 102.497L103.87 103.212L103.97 103.988L104.07 104.043L104.169 103.555L104.269 103.41L104.369 103.651L104.469 103.836L104.569 103.934L104.669 104.034L104.769 103.698L104.869 102.886L104.968 103.59L105.068 103.749L105.168 103.612L105.268 103.367L105.368 103.52L105.468 99.2208L105.568 98.8203L105.668 98.6605L105.767 96.5874L105.867 101.811L105.967 103.606L106.067 101.177L106.167 103.856L106.267 101.455L106.367 101.358L106.466 102.247L106.566 99.6962L106.666 103.054L106.766 102.23L106.866 102.531L106.966 103.577L107.066 102.93L107.166 103.454L107.265 103.483L107.365 103.14L107.465 104.265L107.565 104.407L107.665 104.584L107.765 104.42L107.865 104.331L107.965 104.006L108.064 104.381L108.164 104.31L108.264 104.246L108.364 104.069L108.464 103.328L108.564 104.064L108.664 103.974L108.764 103.742L108.863 104.174L108.963 103.418L109.063 101.205L109.163 98.485L109.263 98.5583L109.363 98.2284L109.463 95.3781L109.563 90.9575L109.662 100.065L109.762 101.272L109.862 100.688L109.962 98.0632L110.062 98.2307L110.162 101.496L110.262 97.9521L110.362 102.504L110.461 102.923L110.561 103.225L110.661 103.487L110.761 103.481L110.861 102.94L110.961 103.886L111.061 103.939L111.161 103.683L111.26 101.59L111.36 99.0425L111.46 99.0823L111.56 98.9839L111.66 103.323L111.76 103.503L111.86 102.659L111.96 102.681L112.059 103.095L112.159 102.945L112.259 102.25L112.359 102.859L112.459 100.963L112.559 102.13L112.659 102.467L112.759 103.009L112.858 103.282L112.958 103.121L113.058 101.393L113.158 101.598L113.258 103.625L113.358 103.034L113.458 102.491L113.558 103.445L113.657 102.357L113.757 100.857L113.857 100.298L113.957 98.2361L114.057 99.5607L114.157 100.254L114.257 102.856L114.357 103.681L114.456 103.922L114.556 103.985L114.656 102.783L114.756 101.945L114.856 102.558L114.956 103.043L115.056 99.2976L115.156 93.0746L115.255 98.7466L115.355 92.6274L115.455 93.7919L115.555 98.8311L115.655 95.8161L115.755 102.821L115.855 100.698L115.954 100.88L116.054 102.988L116.154 103.191L116.254 103.743L116.354 103.28L116.454 101.231L116.554 98.2238L116.654 101.897L116.753 101.503L116.853 99.6105L116.953 95.9156L117.053 96.729L117.153 95.0486L117.253 91.4938L117.353 92.3211L117.453 95.1428L117.552 96.9296L117.652 101.502L117.752 100.971L117.852 100.285L117.952 95.5417L118.052 87.9251L118.152 94.9595L118.252 95.9233L118.351 97.3336L118.451 89.6634L118.551 97.6404L118.651 78.2485L118.851 88.3974L118.951 90.5385L119.051 92.0938L119.15 88.627L119.25 89.5688L119.35 83.9239L119.45 73.7491L119.55 91.637L119.65 85.6849L119.75 86.5812L119.85 91.8148L119.949 97.6292L120.049 93.1221L120.149 91.6844L120.249 97.3039L120.349 97.7565L120.449 96.2351L120.549 90.7727L120.649 85.9816L120.748 76.5168L120.848 79.521L120.948 89.2104L121.048 83.9733L121.148 83.6125L121.248 78.6185L121.348 80.7422L121.448 70.6068L121.547 77.0122L121.647 86.6827L121.747 88.671L121.847 86.8065L121.947 85.198L122.047 86.8343L122.147 79.9979L122.247 81.4394L122.346 79.2382L122.446 75.8879L122.546 85.5414L122.646 94.1685L122.746 95.0922L122.846 79.1606L122.946 81.2889L123.046 90.4509L123.145 92.7991L123.245 92.122L123.345 87.4945L123.445 81.3831L123.545 78.5436L123.645 84.7261L123.745 94.1627L123.944 74.9128L124.044 84.2009L124.144 84.4236L124.244 58.845L124.344 61.6366L124.444 86.5993L124.544 89.9265L124.643 80.2815L124.743 73.8178L124.843 79.303L124.943 62.0483L125.043 62.0097L125.143 75.5908L125.243 100.393L125.343 88.1323L125.442 86.6491L125.642 81.4653L125.742 94.2553L125.842 87.9572L125.942 97.6045L126.042 98.5247L126.142 94.4374L126.241 94.956L126.341 93.7105L126.441 92.2574L126.541 94.7419L126.641 95.6594L126.741 95.8462L126.841 95.8539L126.941 88.2076L127.04 83.2097L127.14 91.1115L127.24 102.533L127.34 98.2724L127.44 94.2476L127.54 97.2692L127.64 98.8338L127.74 99.957L127.839 95.4422L127.939 100.048L128.039 102.798L128.139 98.5348L128.239 99.918L128.339 96.8123L128.439 81.7423L128.539 93.2255L128.638 96.6202L128.738 98.7084L128.838 95.1015L128.938 102.176L129.038 98.6563L129.138 91.7959L129.238 91.7411L129.338 92.2281L129.437 90.3899L129.537 93.3582L129.637 96.1031L129.737 99.8999L129.837 99.6877L129.937 101.544L130.037 101.166L130.137 99.5379L130.236 102.066L130.336 101.005L130.436 101.298L130.536 99.4288L130.636 99.4029L130.736 100.853L130.836 101.975L130.936 101.921L131.035 102.298L131.135 101.979L131.235 100.639L131.335 103.111L131.435 102.001L131.535 100.846L131.635 100.107L131.735 102.896L131.834 96.1275L131.934 84.1446L132.034 74.2935L132.134 91.7875L132.234 91.7489L132.334 93.3548L132.434 90.2792L132.533 93.3914L132.633 88.4024L132.733 87.9903L132.833 87.1195L132.933 82.3288L133.033 89.3636L133.133 88.1003L133.233 93.1209L133.332 83.7638L133.432 80.4131L133.532 95.2342L133.632 97.0099L133.732 95.9947L133.832 100.263L133.932 97.586L134.032 95.4518L134.131 88.1099L134.231 92.9789L134.331 94.7743L134.431 95.0679L134.531 93.0889L134.631 98.4861L134.731 100.181L134.831 101.03L134.93 100.633L135.03 100.556L135.13 102.222L135.23 101.468L135.43 85.3843L135.53 87.77L135.63 95.8952L135.729 95.7208L135.829 92.95L135.929 98.659L136.029 99.2578L136.129 91.8264L136.229 91.9699L136.329 90.4925L136.429 96.0186L136.528 88.2944L136.628 83.5766L136.728 90.4243L136.828 94.5586L136.928 95.0455L137.028 89.7143L137.128 82.6819L137.228 78.9256L137.327 91.5413L137.427 86.4747L137.527 91.1539L137.627 93.8062L137.727 95.2589L137.827 97.0543L137.927 96.915L138.027 95.9407L138.126 97.491L138.226 95.8894L138.326 94.6867L138.426 97.8078L138.526 97.8541L138.626 100.21L138.726 99.5256L138.826 93.9957L138.925 94.5204L139.025 98.8373L139.125 99.4863L139.225 99.3821L139.325 100.89L139.425 101.657L139.525 100.99L139.625 99.5086L139.724 93.1333L139.824 100.775L139.924 95.0151L140.024 101.068L140.124 99.5947L140.224 98.1944L140.324 97.0519L140.424 99.2582L140.523 101.922L140.623 100.011L140.723 102.276L140.823 101.786L140.923 93.4721L141.023 95.781L141.123 98.2349L141.223 97.5829L141.322 96.0638L141.422 96.898L141.522 90.4138L141.622 92.7092L141.722 97.9425L141.822 89.5916L141.922 98.1998L142.021 100.012L142.121 96.9327L142.221 95.4862L142.321 100.161L142.421 101.167L142.521 99.6109L142.621 92.7841L142.721 85.0656L142.82 99.1479L142.92 97.829L143.02 91.6188L143.12 94.8626L143.22 95.5572L143.32 93.3031L143.42 99.1475L143.52 99.161L143.619 96.4138L143.719 99.2374L143.819 98.2982L143.919 101.165L144.019 101.644L144.119 97.8792L144.219 93.2548L144.319 91.9619L144.418 96.8031L144.518 89.2177L144.618 83.6407L144.718 94.7592L144.818 97.0963L144.918 94.4135L145.018 98.2928L145.118 93.5006L145.217 90.6284L145.317 94.6678L145.417 87.4625L145.517 100.493L145.617 99.3693L145.717 95.84L145.817 99.9431L145.917 88.0764L146.016 83.5249L146.116 88.3337L146.216 88.4684L146.316 94.3746L146.416 94.2083L146.516 87.5813L146.616 94.0431L146.716 89.0726L146.815 93.8297L146.915 97.0766L147.015 96.07L147.115 100.878L147.215 98.1022L147.315 96.9632L147.415 89.9277L147.515 97.5281L147.614 97.3336L147.714 97.902L147.814 99.3697L147.914 96.7228L148.014 93.1325L148.114 88.407L148.214 89.0958L148.314 95.9276L148.413 97.2707L148.513 95.8381L148.613 98.2616L148.713 95.4893L148.813 93.839L148.913 101.131L149.013 102.098L149.113 100.801L149.212 101.528L149.312 101.729L149.412 97.9668L149.512 95.196L149.612 101.259L149.712 101.605L149.812 102.209L149.911 100.874L150.011 102.635L150.111 101.054L150.211 100.197L150.311 102.425L150.411 102.373L150.511 102.791L150.611 102.424L150.71 102.338L150.81 102.739L150.91 102.764L151.01 102.722L151.11 102.735L151.21 102.984L151.31 102.668L151.41 102.189L151.509 102.46L151.609 102.537L151.709 102.823L151.809 102.874L151.909 102.202L152.009 102.79L152.109 101.861L152.209 102.264L152.308 101.514L152.408 102.646L152.508 102.784L152.608 101.997L152.708 101.863L152.808 101.846L152.908 103.082L153.008 101.968L153.107 97.9888L153.207 77.1048L153.307 78.7914L153.407 82.5206L153.507 88.5178L153.607 90.8996L153.707 60.0392L153.807 89.9315L153.906 88.2805L154.006 94.4116L154.106 86.1062L154.206 89.5036L154.306 90.5655L154.406 93.5076L154.506 85.6799L154.606 89.5904L154.705 91.1971L154.805 91.4394L154.905 92.7011L155.005 93.8922L155.105 97.6427L155.205 98.0135L155.305 98.8299L155.405 98.8338L155.504 97.6824L155.604 96.2482L155.704 94.1508L155.804 97.6639L155.904 95.6664L156.004 97.1523L156.104 98.5143L156.204 92.9971L156.303 93.4207L156.403 96.4967L156.503 98.9353L156.603 99.6441L156.703 96.81L156.803 94.3788L156.903 94.4525L157.003 101.116L157.102 101.483L157.202 99.854L157.302 101.814L157.402 101.166L157.502 100.765L157.602 100.535L157.702 102.786L157.802 101.92L157.901 102.674L158.001 101.487L158.101 97.6766L158.201 97.8638L158.301 97.7125L158.401 96.888L158.501 91.1547L158.6 95.6737L158.7 92.5753L158.8 96.7205L158.9 101.386L159 96.0341L159.1 96.7051L159.2 90.4856L159.3 99.4438L159.399 101.13L159.499 101.351L159.599 103.02L159.699 93.6742L159.799 100.415L159.899 100.218L159.999 99.8497L160.099 99.803L160.198 101.88L160.298 101.758L160.398 97.1627L160.498 99.4909L160.598 100.304L160.698 97.8885L160.798 100.498L160.898 100.799L160.997 102.07L161.097 101.245L161.197 97.7908L161.297 82.5136L161.397 101.253L161.497 96.5426L161.597 96.2536L161.697 100.055L161.796 98.7917L161.896 88.7709L161.996 87.5099L162.096 71.2288L162.196 93.7229L162.296 94.8264L162.396 83.5257L162.496 94.6786L162.595 92.5584L162.695 93.6461L162.795 94.3279L162.895 93.9563L162.995 92.984L163.095 95.7478L163.195 92.6313L163.295 79.9856L163.394 80.055L163.494 91.5409L163.594 93.7491L163.694 92.8589L163.794 88.7582L163.894 95.5155L163.994 95.465L164.094 91.6891L164.193 95.9504L164.293 97.5856L164.393 83.9497L164.493 83.4894L164.593 97.8858L164.693 100.255L164.793 97.1121L164.893 97.2399L164.992 93.6214L165.092 96.4928L165.192 100.73L165.292 98.0393L165.392 99.127L165.492 96.9385L165.592 96.4724L165.791 101.798L165.891 100.699L165.991 100.76L166.091 100.023L166.191 81.4819L166.291 97.6693L166.391 89.5684L166.491 98.2037L166.59 95.9774L166.69 90.9725L166.79 100.094L166.89 89.7166L166.99 99.286L167.09 95.7632L167.19 92.8061L167.289 91.8963L167.389 95.9851L167.489 92.1856L167.589 89.2412L167.689 95.5772L167.789 96.7745L167.889 97.0087L167.989 87.8773L168.088 88.7547L168.188 71.8068L168.288 92.0159L168.388 83.3663L168.488 90.3324L168.588 77.831L168.688 90.5655L168.788 95.2655L168.887 85.5228L168.987 95.1358L169.087 90.1708L169.187 91.3229L169.287 88.7713L169.387 86.7537L169.487 100.701L169.587 90.8502L169.686 41.7516L169.786 41.7898L169.886 65.0348L169.986 61.647L170.086 71.3754L170.186 92.0726L170.286 70.001L170.386 62.7127L170.485 88.0278L170.585 79.8135L170.685 88.3962L170.785 83.7684L170.885 73.0515L170.985 83.0777L171.085 69.8382L171.185 82.3265L171.284 90.5755L171.384 82.1316L171.484 86.0831L171.584 94.057L171.684 93.6503L171.784 80.3841L171.884 83.2537L171.984 92.8223L172.083 91.9094L172.183 92.6498L172.283 79.3913L172.383 84.3483L172.483 64.86L172.583 80.9174L172.683 86.8895L172.783 97.9124L172.882 94.3838L172.982 95.3299L173.082 91.5718L173.182 90.2664L173.282 91.576L173.382 97.9382L173.482 98.0968L173.582 96.7298L173.681 96.1105L173.781 97.7565L173.881 89.7467L174.081 96.5766L174.181 94.3117L174.281 99.2173L174.381 99.6306L174.48 97.7974L174.58 88.9445L174.68 94.1944L174.78 98.4136L174.88 96.3987L174.98 98.071L175.08 98.7304L175.18 98.4908L175.279 97.5219L175.379 98.3542L175.479 95.928L175.579 97.246L175.679 98.0366L175.779 98.3229L175.879 98.703L175.979 95.6629L176.078 97.417L176.178 98.3453L176.278 98.4649L176.378 97.8395L176.478 99.007L176.578 97.7542L176.678 94.0084L176.777 95.889L176.877 96.0796L176.977 96.8405L177.077 98.7829L177.177 98.2581L177.277 97.8364L177.377 96.7633L177.477 90.7862L177.576 98.4464L177.676 98.1528L177.776 95.0976L177.876 86.4585L177.976 47.3313L178.076 78.1316L178.176 94.3738L178.276 96.6279L178.375 96.3528L178.475 95.7015L178.575 96.5692L178.675 95.2076L178.775 86.4728L178.875 91.1882L178.975 95.5641L179.075 97.7388L179.174 99.3987L179.274 98.8002L179.374 93.3447L179.474 79.9254L179.574 84.6612L179.674 98.9086L179.774 99.8266L179.874 95.4256L179.973 85.2744L180.073 82.4507L180.173 88.4043L180.273 78.8886L180.373 90.0261L180.473 95.916L180.573 93.4925L180.673 78.8342L180.772 85.9179L180.872 72.5754L180.972 43.7765L181.072 77.7187L181.172 75.8184L181.272 90.7642L181.372 90.5111L181.472 73.518L181.571 61.0439L181.671 55.2088L181.771 91.8677L181.871 91.799L181.971 99.3338L182.071 101.147L182.171 100.424L182.271 100.827L182.37 100.679L182.47 101.691L182.57 98.6818L182.67 101.365L182.77 98.0536L182.87 100.409L182.97 97.1997L183.07 89.6915L183.169 100.476L183.269 90.9035L183.369 96.9215L183.469 96.4083L183.569 91.2318L183.769 65.6733L183.869 81.6416L183.968 73.8641L184.068 77.8973L184.168 88.872L184.268 92.5993L184.368 91.7346L184.468 91.6605L184.568 98.8446L184.667 98.7107L184.767 90.4744L184.867 77.0755L184.967 82.3141L185.067 52.5125L185.167 57.9456L185.267 68.1339L185.367 87.9807L185.467 89.8764L185.566 90.3154L185.666 98.5907L185.766 63.8815L185.866 45.2574L185.966 83.2984L186.066 71.9962L186.166 72.8975L186.265 74.8862L186.365 77.9355L186.465 80.3594L186.565 93.5623L186.665 99.8169L186.765 102.039L186.865 102.71L186.965 102.447L187.064 89.9481L187.164 98.588L187.264 58.8261L187.364 69.3902L187.464 61.1994L187.664 102.189L187.764 100.284L187.863 80.2857L187.963 77.7882L188.063 102.2L188.163 97.8325L188.263 90.8757L188.363 102.404L188.463 102.899L188.563 95.4379L188.662 92.3774L188.762 86.2567L188.862 93.631L188.962 87.6585L189.062 79.7077L189.162 76.7718L189.262 60.9166L189.362 74.368L189.461 93.1337L189.561 98.0667L189.661 98.2901L189.761 83.966L189.861 75.5495L189.961 59.5237L190.061 78.3449L190.161 87.9703L190.26 92.7509L190.36 89.4697L190.46 86.386L190.56 83.9235L190.66 73.2591L190.76 43.6561L190.86 75.029L190.96 76.2517L191.059 75.5583L191.159 85.9484L191.259 66.0877L191.359 27.0134L191.459 16.4991L191.559 80.1468L191.759 98.6416L191.858 95.6899L191.958 82.2991L192.058 31.7751L192.158 35.8061L192.258 84.013L192.358 83.8591L192.458 92.7513L192.558 95.904L192.657 84.907L192.757 72.443L192.857 73.3586L192.957 94.8206L193.057 80.3918L193.157 56.942L193.257 92.1995L193.357 93.0688L193.456 86.0472L193.556 32.3393L193.656 73.5928L193.756 91.3082L193.856 37.1349L193.956 51.7867L194.056 96.3316L194.156 59.511L194.255 72.0471L194.355 90.829L194.455 101.825L194.555 100.634L194.655 100.872L194.755 101.29L194.855 101.843L194.954 101.891L195.054 99.8196L195.154 98.9017L195.254 99.3562L195.354 94.4791L195.454 73.2637L195.554 7.52004L195.654 1L195.753 97.5408L195.853 99.2845L195.953 98.3603L196.053 92.2867L196.153 98.1265L196.253 72.2644L196.353 71.0667L196.552 99.5924L196.652 97.7426L196.752 98.6497L196.852 99.3662L196.952 87.0824L197.052 77.6967L197.152 99.9686L197.252 100.682L197.351 100.681L197.451 100.186L197.551 99.085L197.651 98.8685L197.751 89.6846L197.851 99.4986L197.951 98.7747L198.051 101.361L198.15 89.3119L198.25 99.798L198.35 99.7911L198.45 99.0344L198.55 99.707L198.65 100.426L198.75 98.4086L198.85 98.5841L198.949 95.1455L199.049 92.7359L199.149 100.628L199.249 99.1135L199.349 99.8767L199.449 98.9596L199.549 99.5588L199.649 97.3132L199.748 96.1907L199.848 92.541L199.948 100.14L200.048 92.049L200.148 91.0208L200.248 95.9862L200.348 97.6099L200.448 95.747L200.547 88.1539L200.647 95.4461L200.747 99.8254L200.847 96.266L200.947 99.8937L201.047 99.3624L201.147 97.6033L201.247 98.6752L201.346 99.9007L201.446 93.484L201.546 99.1394L201.646 94.4783L201.746 95.487L201.846 86.048L202.046 97.2688L202.145 98.5066L202.245 95.9434L202.345 96.445L202.445 92.9249L202.545 72.4461L202.645 77.5026L202.745 85.7111L202.844 97.5289L202.944 96.2405L203.044 91.4464L203.144 95.2053L203.244 96.129L203.344 87.2719L203.444 90.4428L203.544 94.6717L203.643 95.7173L203.743 97.131L203.843 96.9578L203.943 96.4635L204.043 88.0004L204.143 97.3649L204.243 100.387L204.343 89.6213L204.442 83.8467L204.542 90.0311L204.642 94.8445L204.742 92.9651L204.842 92.2721L204.942 93.0731L205.042 97.2626L205.142 98.1995L205.241 97.8827L205.341 92.7555L205.441 98.6196L205.541 100.029L205.641 99.8887L205.741 98.9001L205.841 98.363L205.941 98.3484L206.04 97.8572L206.14 97.6149L206.24 98.0069L206.34 97.3101L206.44 97.4552L206.54 95.6417L206.64 95.6667L206.74 95.0189L206.839 85.8157L206.939 97.6161L207.039 96.7529L207.139 98.0536L207.239 93.4404L207.339 95.8095L207.439 87.175L207.539 85.9666L207.638 94.5223L207.738 98.6239L207.838 98.4271L207.938 98.2728L208.038 97.3263L208.138 97.9255L208.238 83.2232L208.338 87.4667L208.437 97.1951L208.537 91.985L208.637 84.1982L208.737 87.8101L208.837 75.0359L208.937 73.3988L209.037 86.6418L209.137 91.9233L209.236 95.6471L209.336 84.0435L209.436 97.1982L209.536 96.452L209.636 96.5249L209.736 95.7003L209.836 96.9547L209.936 93.8602L210.035 93.6966L210.135 84.086L210.235 26.4995L210.335 29.021L210.435 85.367L210.535 80.2406L210.635 88.6768L210.734 90.8726L210.834 83.2637L210.934 69.5094L211.034 66.6839L211.134 88.8809L211.234 94.9807L211.334 93.0133L211.434 93.9262L211.533 93.7962L211.633 95.6455L211.733 94.4949L211.833 96.9018L211.933 95.1787L212.033 95.8176L212.133 93.2058L212.233 95.2674L212.332 93.5716L212.432 91.7685L212.532 95.4445L212.632 95.5074L212.732 97.0269L212.832 93.932L212.932 92.306L213.131 58.7173L213.331 80.2792L213.431 75.6988L213.531 68.617L213.631 80.1642L213.731 39.5187L213.831 63.6403L213.93 62.3925L214.03 76.1159L214.13 84.3649L214.23 87.6593L214.33 70.6515L214.43 13.667L214.53 13.6739L214.63 74.5899L214.729 81.074L214.829 72.2347L214.929 61.1346L215.029 70.3128L215.129 37.853L215.229 61.4595L215.329 78.4919L215.429 79.2169L215.528 88.9931L215.628 86.2143L215.728 84.5432L215.928 47.3745L216.028 86.9586L216.128 93.2143L216.228 86.7332L216.327 76.8795L216.427 83.9671L216.527 53.3818L216.627 43.6727L216.727 85.9997L216.827 94.2465L216.927 93.91L217.027 95.666L217.126 77.7959L217.226 50.8919L217.326 53.087L217.426 81.5112L217.526 99.4465L217.626 100.541L217.726 100.297L217.826 98.3932L217.925 91.4128L218.025 74.6238L218.125 96.0048L218.225 99.6487L218.325 98.4198L218.425 100.354L218.525 99.5912L218.625 97.5948L218.724 95.0648L218.824 91.6196L218.924 97.978L219.024 94.625L219.124 98.2025L219.224 98.7022L219.324 93.572L219.424 96.161L219.523 100.967L219.623 97.1206L219.723 100.26L219.823 98.3885L219.923 98.5764L220.023 95.8358L220.123 97.1588L220.223 96.9929L220.322 99.2327L220.422 99.4195L220.522 101.403L220.622 101.503L220.722 101.58L220.822 101.185L220.922 100.936L221.021 100.838L221.121 101.3L221.221 101.304L221.321 101.263L221.421 101.475L221.521 101.323L221.621 101.332L221.721 101.469L221.82 101.574L221.92 101.35L222.02 100.979L222.12 100.77L222.22 100.71L222.32 101.23L222.42 100.892L222.52 100.63L222.619 100.672L222.719 100.523L222.819 100.146L222.919 100.481L223.019 100.415L223.119 100.922L223.219 100.371L223.319 100.437L223.418 101.076L223.518 100.917L223.618 100.806L223.718 100.74L223.818 101.006L223.918 100.472L224.018 99.5102L224.118 98.8496L224.217 99.7745L224.317 98.9534L224.417 99.269L224.517 98.2739L224.617 99.5623L224.717 100.597L224.817 101.51L224.917 99.9377L225.016 98.3202L225.116 101.658L225.216 100.915L225.316 100.704L225.416 100.854L225.516 101.017L225.616 99.4863L225.716 101.869L225.815 99.7235L225.915 101.14H226.015L226.115 101.557L226.215 101.789L226.315 100.313L226.415 100.595L226.515 101.781L226.614 101.868L226.714 102.204L226.814 101.391L226.914 100.854L227.014 100.768L227.114 101.022L227.214 101.95L227.314 101.198L227.413 101.121L227.513 101.123L227.613 101.482L227.713 99.2748L227.813 101.103L227.913 100.927L228.013 100.869L228.113 101.015L228.212 101.365L228.312 101.033L228.412 101.067L228.512 101.454L228.612 101.835L228.712 102.019L228.812 101.061L228.911 102.269L229.011 101.287L229.111 102.022L229.211 99.2397L229.311 101.591L229.411 101.363L229.511 100.729L229.611 99.127L229.71 96.2941L229.81 99.3574L229.91 100.707L230.01 100.851L230.11 101.344L230.21 101.296L230.31 101.162L230.41 101.377L230.509 101.282L230.609 100.9L230.709 98.7061L230.809 100.602L230.909 99.5326L231.009 101.391L231.109 101.076L231.209 97.7631L231.308 101.444L231.408 100.699L231.508 99.8262L231.608 100.623L231.708 100.442L231.808 99.9705L231.908 100.95L232.008 101.259L232.107 99.2409L232.207 99.7594L232.307 99.4033L232.407 99.1845L232.507 100.027L232.607 100.144L232.707 95.5375L232.807 97.7978L232.906 97.7403L233.006 98.0011L233.106 99.5696L233.206 98.1204L233.306 98.6196L233.406 98.8531L233.506 98.4421L233.606 95.8813L233.705 99.5082L233.805 97.8653L233.905 99.5989L234.005 98.4387L234.105 98.7173L234.205 97.9348L234.305 96.1394L234.405 98.0031L234.504 99.6236L234.604 99.7189L234.704 101.273L234.804 98.9156L234.904 100.107L235.004 100.227L235.104 100.81L235.204 99.5881L235.303 99.9686L235.403 100.129L235.503 99.9354L235.603 99.3852L235.703 98.5969L235.803 98.2411L235.903 100.827L236.003 99.6448L236.102 99.271L236.202 100.339L236.302 101.142L236.402 99.9998L236.502 99.0294L236.602 99.6556L236.702 99.8258L236.801 99.171L236.901 99.2586L237.001 99.4315L237.101 98.5417L237.201 98.0092L237.301 99.1868L237.401 100.513L237.501 100.156L237.6 98.9846L237.7 99.0649L237.8 98.179L237.9 98.4391L238 98.7512L238.1 98.987L238.2 98.4317L238.3 98.441L238.399 98.4479L238.499 99.5808L238.599 99.1911L238.699 98.0887L238.799 98.5178L238.899 97.4046L238.999 95.1169L239.099 90.5041L239.198 96.3331L239.298 96.3597L239.398 95.7289L239.498 96.7784L239.598 97.9L239.698 96.3177L239.798 93.5701L239.898 97.0346L239.997 99.0344L240.097 98.4418L240.197 99.9659L240.297 99.2389L240.397 99.7139L240.497 100.043L240.597 99.7297L240.697 99.1436L240.796 99.9936L240.896 96.4041L240.996 97.6114L241.096 98.2315L241.196 100.694L241.296 100.472L241.396 97.9541L241.496 98.9738L241.595 98.4043L241.695 97.7885L241.795 97.2047L241.895 97.3382L241.995 96.3177L242.095 97.9926L242.195 96.766L242.295 98.4136L242.394 97.1449L242.494 99.0394L242.594 98.8284L242.694 99.2505L242.794 99.5572L242.894 100.045L242.994 101.222L243.094 99.896L243.193 99.4909L243.293 100.485L243.393 100.469L243.493 99.2084L243.593 100.781L243.693 101.086L243.793 100.307L243.893 99.9365L243.992 101.055L244.092 101.146L244.192 101.186L244.292 100.908L244.392 101.388L244.492 101.438L244.592 100.847L244.692 101.512L244.791 101.416L244.891 100.557L244.991 100.966L245.091 100.697L245.191 98.9704L245.291 99.8536L245.391 100.64L245.491 100.954L245.59 101.042L245.69 100.351L245.79 99.8721L245.89 98.6058L245.99 99.0873L246.09 100.763L246.19 101.027L246.29 101.614L246.389 101.383L246.489 100.148L246.589 100.129L246.689 100.071L246.789 101.571L246.889 100.862L246.989 100.797L247.088 100.791L247.188 101.153L247.288 100.988L247.388 101.218L247.488 101.666L247.588 100.836L247.688 100.063L247.788 100.047L247.887 99.3909L247.987 99.056L248.087 98.9272L248.187 101.562L248.287 101.838L248.387 101.983L248.487 101.775L248.587 99.8038L248.686 99.2412L248.786 98.1937L248.886 99.3805L248.986 100.924L249.086 99.9234L249.186 100.206L249.286 100.669L249.386 99.4291L249.485 100.115L249.585 100.594L249.685 100.275L249.885 101.933L249.985 101.697L250.085 98.091L250.185 98.7057L250.284 101.814L250.384 101.982L250.484 102.147L250.584 101.988L250.684 101.946L250.784 102.064L250.884 101.834L250.984 101.888L251.083 101.781L251.183 102.313L251.283 102.011L251.383 102.28L251.483 101.282L251.583 99.7749L251.683 102.5L251.783 102.073L251.882 102.731L251.982 101.993L252.082 102.105L252.182 101.602L252.282 102.009L252.382 101.43L252.482 102.303L252.582 102.575L252.681 102.685L252.781 102.77L252.881 102.736L252.981 102.816L253.081 102.232L253.181 103.154L253.281 103.03L253.381 102.555L253.48 100.092L253.58 98.142L253.68 99.8416L253.78 102.239L253.88 102.522L253.98 102.255L254.08 101.652L254.18 101.266L254.279 99.6942L254.379 100.454L254.479 102.461L254.579 102.493L254.679 102.002L254.779 101.529L254.879 102.173L254.979 101.111L255.078 101.726L255.178 102.643L255.278 102.039L255.378 102.453L255.478 101.971L255.578 100.129L255.678 99.9014L255.777 100.04L255.877 101.538L255.977 102.595L256.077 101.959L256.177 102.196L256.277 102.311L256.377 99.3964L256.477 100.846L256.576 101.674L256.676 102.206L256.776 100.961L256.876 102.189L256.976 102.347L257.076 100.03L257.176 100.422L257.276 102.259L257.375 102.512L257.475 102.311L257.575 101.952L257.675 102.101L257.775 101.239L257.875 100.786L257.975 101.11L258.075 100.922L258.174 100.991L258.274 101.425L258.374 102.492L258.474 100.898L258.574 97.7727L258.674 101.34L258.774 102.18L258.874 101.478L258.973 101.426L259.073 102.003L259.173 100.94L259.273 100.824L259.373 101.906L259.473 102.335L259.573 102.658L259.673 102.659L259.772 102.044L259.872 102.189L259.972 101.014L260.072 101.805L260.172 102.66L260.272 102.627L260.372 102.59L260.472 102.582L260.571 102.429L260.671 101.944L260.771 102.573L260.871 102.267L260.971 102.221L261.071 101.719L261.171 101.313L261.271 100.485L261.37 100.493L261.47 100.742L261.57 101.491L261.67 101.672L261.77 101.74L261.87 102.108L261.97 101.23L262.07 102.096L262.169 102.104L262.269 102.042L262.369 101.419L262.469 101.846L262.569 101.915L262.669 101.483L262.769 100.567L262.868 102.526L262.968 102.152L263.068 101.397L263.168 101.518L263.268 101.297L263.368 102.625L263.468 101.84L263.568 95.0378L263.667 97.29L263.767 95.0139L263.867 99.3994L263.967 93.2795L264.067 86.1525L264.167 91.1415L264.267 98.811L264.367 98.2932L264.466 98.2573L264.566 101.699L264.666 100.529L264.766 77.1959L264.866 90.2595L264.966 87.9506L265.066 92.8744L265.166 98.7771L265.265 97.9216L265.365 96.8671L265.465 93.0905L265.565 85.4626L265.665 96.6966L265.765 96.7973L265.865 82.1752L265.965 86.0287L266.064 83.8066L266.164 73.3393L266.264 77.3572L266.364 93.506L266.464 96.9092L266.564 101.328L266.664 100.051L266.764 93.4335L266.863 80.6149L266.963 83.1985L267.063 97.6118L267.163 90.9328L267.263 83.5153L267.363 84.2901L267.463 74.5536L267.563 62.6174L267.662 72.3639L267.762 80.954L267.862 83.2946L267.962 76.9158L268.062 57.2696L268.162 58.3511L268.262 58.4321L268.362 60.2074L268.461 76.178L268.561 80.0793L268.661 85.4762L268.761 75.8855L268.861 77.2094L268.961 67.5748L269.061 67.0091L269.161 75.1196L269.26 76.0021L269.36 73.3509L269.46 76.5156L269.56 88.2593L269.66 75.5082L269.76 75.1308L269.96 96.8486L270.059 91.8422L270.159 90.648L270.259 94.6998L270.359 89.3867L270.459 83.3521L270.559 88.1574L270.659 95.0606L270.759 90.2456L270.858 84.8901L270.958 88.3735L271.058 77.9645L271.158 61.6679L271.258 80.8815L271.358 93.2263L271.458 89.514L271.557 86.734L271.657 78.5058L271.757 64.6397L271.857 55.8547L271.957 79.9979L272.057 79.5723L272.157 89.2918L272.257 92.8887L272.357 92.0359L272.456 79.9493L272.556 81.5934L272.656 97.3259L272.756 97.6998L272.856 98.7956L272.956 98.1366L273.056 97.3371L273.155 101.167L273.255 88.3947L273.355 96.979L273.455 97.2642L273.555 98.5841L273.655 93.8371L273.755 90.6496L273.855 88.0251L273.954 77.3464L274.054 83.2749L274.154 87.5188L274.254 87.8256L274.354 91.3958L274.454 92.0325L274.554 82.7791L274.654 86.1784L274.753 93.5037L274.853 95.644L274.953 97.4027L275.053 99.7058L275.153 101.563L275.253 99.827L275.353 95.8793L275.453 98.7157L275.552 102.185L275.652 101.906L275.752 101.808L275.852 100.651L275.952 88.2195L276.052 88.9823L276.152 97.5555L276.252 97.0628L276.351 102.813L276.451 102.405L276.551 102.593L276.651 101.688L276.751 102.153L276.851 102.075L276.951 102.825L277.051 102.713L277.15 102.431L277.25 101.863L277.35 96.8606L277.45 86.0017L277.55 94.7758L277.65 100.026L277.75 102.062L277.85 101.804L277.949 101.914L278.049 96.2162L278.149 95.6999L278.249 100.613L278.349 102.245L278.449 101.846L278.549 101.623L278.649 102.649L278.748 102.403L278.848 99.1116L278.948 100.856L279.048 100.991L279.148 101.812L279.248 100.563L279.348 99.0483L279.448 92.9481L279.547 88.4368L279.647 98.8222L279.747 97.8368L279.847 98.4587L279.947 98.1188L280.047 101.003L280.147 97.4853L280.247 96.3431L280.346 102.342L280.446 102.005L280.546 102.052L280.646 102.372L280.746 101.482L280.846 95.9372L280.946 85.7655L281.046 96.0588L281.145 97.5493L281.245 99.6205L281.345 98.1616L281.445 91.9646L281.545 78.7107L281.645 75.5059L281.745 82.2682L281.844 90.6006L281.944 88.6775L282.044 99.308L282.144 96.6329L282.344 54.0227L282.444 89.7074L282.544 97.1638L282.643 100.06L282.743 99.6838L282.843 85.6617L282.943 64.9595L283.043 66.4778L283.143 74.4564L283.243 75.4086L283.343 77.2676L283.442 69.9423L283.542 79.4924L283.642 58.321L283.742 86.2313L283.842 102.575L283.942 102.59L284.042 101.946L284.142 100.371L284.241 95.8732L284.341 102.263L284.441 103.004L284.541 101.697L284.641 101.976L284.741 101.609L284.841 101.431L284.941 101.526L285.04 87.9201L285.14 92.7293L285.24 101.895L285.34 101.219L285.44 101.621L285.54 99.6657L285.64 98.6902L285.74 83.4852L285.839 88.3793L285.939 101.336L286.039 101.67L286.139 101.454L286.239 100.234L286.339 100.163L286.439 87.7079L286.539 98.5672L286.638 101.607L286.738 101.722L286.838 101.063L286.938 100.32L287.038 98.6355L287.138 85.7107L287.238 83.7202L287.338 96.6619L287.437 95.8736L287.537 96.942L287.637 90.9853L287.737 88.8515L287.837 83.5604L287.937 65.3064L288.037 81.2666L288.137 76.6788L288.236 89.5711L288.336 98.6482L288.436 93.9887L288.636 64.3383L288.736 79.0016L288.836 90.1376L288.936 91.113L289.035 88.9214L289.135 85.2902L289.235 59.2937L289.335 66.648L289.435 79.7135L289.535 91.1682L289.635 98.0768L289.734 101.272L289.834 101.698L290.034 78.5541L290.134 91.4464L290.234 96.2922L290.334 102.504L290.434 102.588L290.533 102.493L290.633 94.9163L290.733 92.1548L290.833 95.975L290.933 100.13L291.033 99.7459L291.133 101.79L291.233 99.7444L291.332 88.0771L291.432 96.1058L291.532 101.525L291.632 101.984L291.732 101.997L291.832 101.5L291.932 101.562L292.032 99.9686L292.131 98.424L292.231 101.501L292.331 102.287L292.431 102.09L292.531 102.847L292.631 101.777L292.731 101.569L292.831 99.4044L292.93 99.0502L293.03 101.545L293.13 100.436L293.23 98.6937L293.33 98.1917L293.43 95.0544L293.53 88.3376L293.63 98.6956L293.729 102.004L293.829 101.393L293.929 101.126L294.029 99.8779L294.129 89.1467L294.229 82.9323L294.329 98.0501L294.429 102.15L294.528 102.632L294.628 102.598L294.728 102.121L294.828 97.9143L294.928 89.6464L295.028 99.8567L295.128 101.949L295.228 102.051L295.327 101.599L295.427 102.072L295.627 84.8982L295.727 100.728L295.827 102.483L295.927 101.808L296.027 101.003L296.126 98.4792L296.226 87.5574L296.326 81.4541L296.426 96.1907L296.526 93.251L296.626 98.4028L296.726 95.9442L296.826 94.3364L296.925 83.7217L297.025 80.6855L297.125 93.2213L297.225 91.6327L297.325 98.3079L297.425 101.452L297.525 98.9526L297.625 86.0028L297.724 76.0067L297.824 91.8534L297.924 95.9392L298.024 97.8665L298.124 96.0684L298.224 87.1719L298.324 62.5476L298.424 69.041L298.523 92.6676L298.623 98.0247L298.723 97.444L298.823 98.2828L298.923 92.4581L299.023 89.9192L299.123 83.0561L299.223 98.6883L299.322 95.6293L299.422 93.6391L299.522 87.1939L299.622 87.5597L299.722 86.837L299.822 81.1682L299.922 92.3087L300.021 91.074L300.121 98.0524L300.221 91.4954L300.321 86.5141L300.421 67.3788L300.521 75.1605L300.621 97.3182L300.721 95.0926L300.82 98.7192L300.92 96.6048L301.02 101.123L301.12 95.8558L301.22 93.5712L301.32 101.493L301.42 101.102L301.52 102.022L301.619 101.684L301.719 101.925L301.819 100.39L301.919 99.9454L302.019 102.041L302.119 100.158L302.219 102.388L302.319 101.455L302.418 101.96L302.518 101.99L302.618 102.568L302.718 102.634L302.818 101.902L302.918 102.78L303.018 102.392L303.118 101.961L303.217 102.347L303.317 102.684L303.417 102.421L303.517 102.135L303.617 101.948L303.717 101.687L303.817 102.379L303.917 102.27L304.016 102.127L304.116 101.426L304.216 101.284L304.316 101.609L304.416 100.636L304.516 101.808L304.616 101.24L304.716 103.318L304.815 102.139L304.915 101.951L305.015 101.69L305.115 102.065L305.215 101.557L305.315 102.74L305.415 102.707L305.515 102.392L305.614 102.038L305.714 102.436L305.814 101.9L305.914 101.674L306.014 101.708L306.114 101.948L306.214 100.175L306.314 102.139L306.413 102.444L306.513 101.787L306.613 103.127L306.713 102.822L306.813 103.187L306.913 102.781L307.013 102.001L307.113 102.811L307.212 100.828L307.312 102.041L307.412 102.351L307.512 101.259L307.612 102.835L307.712 101.78L307.812 102.246L307.911 101.409L308.011 102.155L308.111 102.225L308.211 101.649L308.311 99.9331L308.411 101.673L308.511 102.232L308.611 101.213L308.71 101.778L308.81 102.159L308.91 103.009L309.01 101.52L309.11 102.225L309.21 102.541L309.31 100.944L309.41 101.742L309.509 101.849L309.609 102.153L309.709 101.308L309.809 101.894L309.909 101.606L310.009 101.556L310.109 101.084L310.209 101.711L310.308 98.6578L310.408 99.7664L310.508 99.3693L310.608 100.366L310.708 101.137L310.808 101.67L310.908 101.759L311.008 100.65L311.107 100.407L311.207 101.885L311.307 101.827L311.407 101.76L311.507 101.4L311.607 102.389L311.707 100.813L311.807 101.328L311.906 102.25L312.006 102.425L312.106 102.047L312.206 102.528L312.306 100.901L312.406 100.743L312.506 101.656L312.606 101.614L312.705 102.252L312.805 102.434L312.905 101.733L313.005 102.575L313.105 102.634L313.205 102.419L313.305 102.281L313.405 102.326L313.504 102.765L313.604 102.067L313.704 102.577L313.804 102.284L313.904 102.58L314.004 101.972L314.104 102.907L314.204 102.173L314.303 102.152L314.403 102.668L314.503 102.417L314.603 101.921L314.703 102.193L314.803 102.429L314.903 101.926L315.003 102.543L315.102 102.885L315.202 102.616L315.302 102.169L315.402 102.133L315.502 102.835L315.602 101.392L315.702 101.184L315.802 102.47L315.901 103.098L316.001 103.244L316.101 102.326L316.201 102.188L316.301 101.357L316.401 101.558L316.501 103.165L316.6 102.902L316.7 103.025L316.8 102.217L316.9 102.881L317 102.929" stroke="#CED4DA" style="stroke:#CED4DA;stroke:color(display-p3 0.8078 0.8314 0.8549);stroke-opacity:1;" stroke-width="0.5" stroke-linecap="round" stroke-linejoin="round"/>
</svg>
